<svg width="239" height="239" xmlns="http://www.w3.org/2000/svg" xmlns:xlink="http://www.w3.org/1999/xlink" xml:space="preserve" overflow="hidden"><g transform="translate(-449 -169)"><path d="M570.99 330.823C570.99 333.573 568.76 335.802 566.01 335.802 563.26 335.802 561.031 333.573 561.031 330.823 561.031 328.073 563.26 325.844 566.01 325.844 568.76 325.844 570.99 328.073 570.99 330.823Z" stroke="#EE792D" stroke-width="4.01681" fill="#EE792D"/><path d="M590.906 330.823C590.906 333.573 588.677 335.802 585.927 335.802 583.177 335.802 580.948 333.573 580.948 330.823 580.948 328.073 583.177 325.844 585.927 325.844 588.677 325.844 590.906 328.073 590.906 330.823Z" stroke="#EE792D" stroke-width="4.01681" fill="#EE792D"/><path d="M570.99 350.74C570.99 353.49 568.76 355.719 566.01 355.719 563.26 355.719 561.031 353.49 561.031 350.74 561.031 347.99 563.26 345.76 566.01 345.76 568.76 345.76 570.99 347.99 570.99 350.74Z" stroke="#EE792D" stroke-width="4.01681" fill="#EE792D"/><path d="M590.906 350.74C590.906 353.49 588.677 355.719 585.927 355.719 583.177 355.719 580.948 353.49 580.948 350.74 580.948 347.99 583.177 345.76 585.927 345.76 588.677 345.76 590.906 347.99 590.906 350.74Z" stroke="#EE792D" stroke-width="4.01681" fill="#EE792D"/><path d="M638.955 312.151C629.744 304.433 618.79 299.952 607.338 295.72L595.139 290.741C594.143 290.243 593.645 289.496 593.645 288.5L593.645 282.525C603.105 275.056 608.582 263.604 608.582 251.405L608.582 236.468 608.582 236.468 608.582 228.999C619.536 220.783 621.777 205.099 613.561 194.145 607.835 186.427 598.375 182.942 588.915 184.684 580.948 173.481 565.513 170.992 554.309 178.958 552.069 180.452 550.077 182.444 548.583 184.684 535.14 182.195 521.945 190.908 519.455 204.352 517.464 213.564 521.198 223.024 528.667 228.75L528.667 243.688 528.667 243.688 528.667 251.156C528.667 263.106 534.144 274.558 543.604 282.276L543.604 288.5C543.604 289.496 543.106 290.492 542.11 290.741L529.911 295.72C518.459 299.703 507.505 304.433 498.294 312.151 492.319 316.632 489.082 323.354 488.833 330.823L488.833 374.64 491.074 376.133C503.273 384.349 536.384 388.332 569.247 388.332 602.358 388.332 635.221 384.1 646.175 375.884L648.167 374.391 648.167 330.823C647.918 323.354 644.681 316.632 638.955 312.151ZM543.604 193.896C547.339 193.896 550.824 195.39 553.562 197.879 554.06 189.664 561.28 183.44 569.496 184.186 576.965 184.684 582.691 190.659 583.189 197.879 589.412 192.402 598.624 192.9 604.35 198.875 609.827 205.099 609.329 214.31 603.354 220.036 601.86 221.281 600.118 222.277 598.375 223.024L598.375 233.729 538.625 233.729 538.625 223.024C530.907 220.285 526.924 211.821 529.662 203.854 531.654 197.879 537.38 193.896 543.604 193.896ZM538.625 251.156 538.625 243.688 598.375 243.688 598.375 251.156C598.375 267.587 584.931 281.031 568.5 281.031 552.069 281.031 538.625 267.587 538.625 251.156ZM568.5 290.99C573.728 290.99 578.707 289.994 583.438 288.002L583.438 288.251C583.438 291.985 585.18 295.72 588.168 298.209 581.944 300.201 575.222 300.948 568.5 300.948 561.778 300.948 555.056 299.952 548.583 298.209 551.571 295.969 553.314 292.234 553.314 288.251L553.314 288.002C558.293 289.994 563.272 290.99 568.5 290.99ZM498.792 330.823C498.792 326.342 501.032 322.358 504.518 319.62 512.733 312.898 522.692 308.666 533.148 304.931L533.148 304.931 533.397 304.682C534.642 304.184 535.638 303.935 536.882 303.438 537.38 303.686 538.127 304.184 538.625 304.433L538.625 376.631C521.447 375.138 506.509 372.648 498.792 368.665L498.792 330.823ZM638.208 369.162C624.516 376.631 583.438 379.37 548.583 377.627L548.583 308.417C555.056 310.159 561.778 310.906 568.5 310.906 581.197 310.906 592.649 308.168 600.118 303.686 601.362 304.184 602.358 304.433 603.603 304.931L604.101 305.18 604.101 305.18C614.557 308.915 624.516 313.147 632.731 319.869 636.217 322.607 638.208 326.591 638.208 330.823L638.208 369.162Z" stroke="#EE792D" stroke-width="4.01681" fill="#EE792D"/></g></svg>