<svg width="252" height="252" xmlns="http://www.w3.org/2000/svg" xmlns:xlink="http://www.w3.org/1999/xlink" xml:space="preserve" overflow="hidden"><g transform="translate(-436 -156)"><path d="M564.625 326.625C564.625 329.524 562.274 331.875 559.375 331.875 556.476 331.875 554.125 329.524 554.125 326.625 554.125 323.726 556.476 321.375 559.375 321.375 562.274 321.375 564.625 323.726 564.625 326.625Z" stroke="#717171" stroke-width="4.01594" fill="#717171"/><path d="M585.625 326.625C585.625 329.524 583.274 331.875 580.375 331.875 577.476 331.875 575.125 329.524 575.125 326.625 575.125 323.726 577.476 321.375 580.375 321.375 583.274 321.375 585.625 323.726 585.625 326.625Z" stroke="#717171" stroke-width="4.01594" fill="#717171"/><path d="M564.625 347.625C564.625 350.524 562.274 352.875 559.375 352.875 556.476 352.875 554.125 350.524 554.125 347.625 554.125 344.726 556.476 342.375 559.375 342.375 562.274 342.375 564.625 344.726 564.625 347.625Z" stroke="#717171" stroke-width="4.01594" fill="#717171"/><path d="M585.625 347.625C585.625 350.524 583.274 352.875 580.375 352.875 577.476 352.875 575.125 350.524 575.125 347.625 575.125 344.726 577.476 342.375 580.375 342.375 583.274 342.375 585.625 344.726 585.625 347.625Z" stroke="#717171" stroke-width="4.01594" fill="#717171"/><path d="M636.287 306.938C626.575 298.8 615.025 294.075 602.95 289.612L590.088 284.362C589.037 283.837 588.513 283.05 588.513 282L588.513 275.7C598.487 267.825 604.263 255.75 604.263 242.887L604.263 227.138 604.263 227.138 604.263 219.262C615.812 210.6 618.175 194.062 609.513 182.512 603.475 174.375 593.5 170.7 583.525 172.538 575.125 160.725 558.85 158.1 547.037 166.5 544.675 168.075 542.575 170.175 541 172.538 526.825 169.913 512.912 179.1 510.288 193.275 508.188 202.988 512.125 212.962 520 219L520 234.75 520 234.75 520 242.625C520 255.225 525.775 267.3 535.75 275.438L535.75 282C535.75 283.05 535.225 284.1 534.175 284.362L521.312 289.612C509.237 293.812 497.688 298.8 487.975 306.938 481.675 311.662 478.263 318.75 478 326.625L478 372.825 480.362 374.4C493.225 383.062 528.138 387.263 562.787 387.263 597.7 387.263 632.35 382.8 643.9 374.138L646 372.562 646 326.625C645.737 318.75 642.325 311.662 636.287 306.938ZM535.75 182.25C539.688 182.25 543.362 183.825 546.25 186.45 546.775 177.788 554.388 171.225 563.05 172.012 570.925 172.538 576.963 178.837 577.487 186.45 584.05 180.675 593.763 181.2 599.8 187.5 605.575 194.062 605.05 203.775 598.75 209.812 597.175 211.125 595.338 212.175 593.5 212.962L593.5 224.25 530.5 224.25 530.5 212.962C522.362 210.075 518.162 201.15 521.05 192.75 523.15 186.45 529.188 182.25 535.75 182.25ZM530.5 242.625 530.5 234.75 593.5 234.75 593.5 242.625C593.5 259.95 579.325 274.125 562 274.125 544.675 274.125 530.5 259.95 530.5 242.625ZM562 284.625C567.513 284.625 572.763 283.575 577.75 281.475L577.75 281.737C577.75 285.675 579.588 289.612 582.737 292.237 576.175 294.338 569.088 295.125 562 295.125 554.912 295.125 547.825 294.075 541 292.237 544.15 289.875 545.987 285.938 545.987 281.737L545.987 281.475C551.237 283.575 556.487 284.625 562 284.625ZM488.5 326.625C488.5 321.9 490.862 317.7 494.538 314.812 503.2 307.725 513.7 303.263 524.725 299.325L524.725 299.325 524.987 299.062C526.3 298.537 527.35 298.275 528.662 297.75 529.188 298.013 529.975 298.537 530.5 298.8L530.5 374.925C512.388 373.35 496.638 370.725 488.5 366.525L488.5 326.625ZM635.5 367.05C621.062 374.925 577.75 377.812 541 375.975L541 303C547.825 304.838 554.912 305.625 562 305.625 575.388 305.625 587.463 302.737 595.338 298.013 596.65 298.537 597.7 298.8 599.013 299.325L599.537 299.588 599.537 299.588C610.562 303.525 621.062 307.987 629.725 315.075 633.4 317.963 635.5 322.162 635.5 326.625L635.5 367.05Z" stroke="#717171" stroke-width="4.01594" fill="#717171"/></g></svg>