<svg width="391" height="391" xmlns="http://www.w3.org/2000/svg" xmlns:xlink="http://www.w3.org/1999/xlink" xml:space="preserve" overflow="hidden"><g transform="translate(-297 -17)"><path d="M492.5 196.208C472.135 196.208 455.844 179.917 455.844 159.552 455.844 139.188 472.135 122.896 492.5 122.896 512.865 122.896 529.156 139.188 529.156 159.552 529.156 179.917 512.865 196.208 492.5 196.208ZM492.5 74.0208C464.397 74.0208 437.923 87.8687 422.039 111.492 406.154 134.707 402.896 164.44 413.078 190.914L451.771 276.445 485.169 346.499C486.391 349.35 489.242 350.979 492.5 350.979 495.758 350.979 498.609 349.35 499.831 346.499L533.229 276.445 571.922 190.914C582.104 164.44 578.846 134.707 562.961 111.492 547.077 87.8687 520.603 74.0208 492.5 74.0208Z" fill="#EE792D"/></g></svg>